<svg id="Layer_1" data-name="Layer 1" xmlns="http://www.w3.org/2000/svg" xmlns:xlink="http://www.w3.org/1999/xlink" width="75" height="75" viewBox="0 0 75 75">
  <defs>
    <style>
      .cls-1, .cls-5 {
        fill: none;
      }

      .cls-2 {
        fill: #b764d8;
      }

      .cls-3 {
        fill: #fff;
      }

      .cls-4 {
        clip-path: url(#clip-path);
      }

      .cls-5, .cls-6, .cls-7 {
        stroke: #000;
        stroke-miterlimit: 10;
        stroke-width: 2px;
      }

      .cls-6 {
        fill: #d1a0e8;
      }
    </style>
    <clipPath id="clip-path">
      <path class="cls-1" d="M54,33.19q-.13-.66-.3-1.3a16.85,16.85,0,0,0-32.48,0q-.18.64-.3,1.3a17,17,0,0,0,.59,8.6c3.38,2.57,9.26,4.26,16,4.26s12.57-1.7,16-4.26a17,17,0,0,0,.59-8.6Zm-6.17,3.39a2.91,2.91,0,0,1-2.91,2.91H30a2.91,2.91,0,0,1-2.91-2.91v-1.5A2.91,2.91,0,0,1,30,32.17H44.9a2.91,2.91,0,0,1,2.91,2.91Z"/>
    </clipPath>
  </defs>
  <title>cw_bot_support</title>
  <circle class="cls-2" cx="37.5" cy="37.5" r="37.5"/>
  <path d="M14.73,32.47a.9.9,0,0,1,.9.9h0v5.82a.9.9,0,0,1-1.79,0V33.36A.9.9,0,0,1,14.73,32.47Z"/>
  <path d="M17.27,30.68a.9.9,0,0,1,.9.9v9.26a.9.9,0,0,1-1.79,0V31.57A.9.9,0,0,1,17.27,30.68Z"/>
  <path d="M60.13,32.47a.9.9,0,0,1,.9.9h0v5.82a.9.9,0,0,1-1.79,0V33.36A.9.9,0,0,1,60.13,32.47Z"/>
  <path d="M57.59,30.68a.9.9,0,0,1,.9.9h0v9.26a.9.9,0,1,1-1.79,0V31.57A.9.9,0,0,1,57.59,30.68Z"/>
  <path class="cls-3" d="M54,33.19q-.13-.66-.3-1.3a16.85,16.85,0,0,0-32.48,0q-.18.64-.3,1.3a17,17,0,0,0,.59,8.6c3.38,2.57,9.26,4.26,16,4.26s12.57-1.7,16-4.26a17,17,0,0,0,.59-8.6Zm-6.17,3.39a2.91,2.91,0,0,1-2.91,2.91H30a2.91,2.91,0,0,1-2.91-2.91v-1.5A2.91,2.91,0,0,1,30,32.17H44.9a2.91,2.91,0,0,1,2.91,2.91Z"/>
  <g class="cls-4">
    <path class="cls-3" d="M37.43,27.4c-10.49,0-19,4.17-19,9.32s8.5,9.32,19,9.32,19-4.17,19-9.32S47.92,27.4,37.43,27.4Zm10.45,9.17A2.91,2.91,0,0,1,45,39.49H30a2.91,2.91,0,0,1-2.91-2.91v-1.5A2.91,2.91,0,0,1,30,32.17H45a2.91,2.91,0,0,1,2.91,2.91Z"/>
  </g>
  <path class="cls-5" d="M54,33.19q-.13-.66-.3-1.3a16.85,16.85,0,0,0-32.48,0q-.18.64-.3,1.3a17,17,0,0,0,.59,8.6c3.38,2.57,9.26,4.26,16,4.26s12.57-1.7,16-4.26a17,17,0,0,0,.59-8.6Zm-6.17,3.39a2.91,2.91,0,0,1-2.91,2.91H30a2.91,2.91,0,0,1-2.91-2.91v-1.5A2.91,2.91,0,0,1,30,32.17H44.9a2.91,2.91,0,0,1,2.91,2.91Z"/>
  <path class="cls-6" d="M22,46.38a16.85,16.85,0,0,0,30.77,0c-3.45,2.34-9.06,3.86-15.38,3.86S25.5,48.71,22,46.38Z"/>
  <path d="M32.07,34.18a1.72,1.72,0,1,1-1.73,1.72,1.72,1.72,0,0,1,1.73-1.72Z"/>
  <path d="M42.94,34.18a1.72,1.72,0,1,1-1.72,1.72,1.72,1.72,0,0,1,1.72-1.72Z"/>
  <path class="cls-7" d="M37.53,21.42V15.93"/>
  <path d="M37.51,12.26a2.22,2.22,0,1,1-2.21,2.23h0A2.22,2.22,0,0,1,37.51,12.26Z"/>
</svg>
