<svg id="Layer_1" data-name="Layer 1" xmlns="http://www.w3.org/2000/svg" xmlns:xlink="http://www.w3.org/1999/xlink" width="75" height="75" viewBox="0 0 75 75">
  <defs>
    <style>
      .cls-1 {
        fill: none;
      }

      .cls-2 {
        clip-path: url(#clip-path);
      }

      .cls-3 {
        fill: #feb155;
      }

      .cls-4 {
        stroke: #000;
        stroke-miterlimit: 10;
      }

      .cls-5 {
        fill: #ffd164;
      }

      .cls-6 {
        fill: #fff;
      }
    </style>
    <clipPath id="clip-path">
      <rect class="cls-1" width="75" height="75"/>
    </clipPath>
  </defs>
  <title>knowledgbase</title>
  <g class="cls-2">
    <g>
      <circle class="cls-3" cx="37.5" cy="37.5" r="37.5"/>
      <path class="cls-4" d="M15.82,56.68V23.09l.47-.21a22.09,22.09,0,0,1,9.29-2.38A26.86,26.86,0,0,1,37.93,23a.64.64,0,0,0,.48,0,27.07,27.07,0,0,1,8.35-2.34,22.47,22.47,0,0,1,9.65.81c1.4.46,2.74,1.1,4.11,1.65v33.6h-.13a26.48,26.48,0,0,0-8.72-2.44A23.26,23.26,0,0,0,38.5,56.5a.81.81,0,0,1-.63,0A23.85,23.85,0,0,0,22,54.58,28,28,0,0,0,15.82,56.68Zm41.9-4V25.3a.58.58,0,0,0-.45-.66c-.79-.25-1.56-.57-2.36-.78A23,23,0,0,0,40,25.24a.73.73,0,0,0-.51.81V53A27.63,27.63,0,0,1,57.72,52.63ZM36.78,53V26a.59.59,0,0,0-.41-.65A25,25,0,0,0,29.5,23.4a20.58,20.58,0,0,0-10.44,1.25.6.6,0,0,0-.44.67V52.63A27.61,27.61,0,0,1,36.77,53Z"/>
      <path class="cls-5" d="M57.72,52.63A27.63,27.63,0,0,0,39.5,53V26a.73.73,0,0,1,.51-.81,23,23,0,0,1,14.87-1.38c.8.2,1.57.53,2.36.78a.58.58,0,0,1,.45.66V52.06A3.38,3.38,0,0,1,57.72,52.63Z"/>
      <path class="cls-6" d="M36.77,53a27.61,27.61,0,0,0-18.17-.39V25.31a.6.6,0,0,1,.44-.67A20.58,20.58,0,0,1,29.5,23.4a25,25,0,0,1,6.9,1.91.59.59,0,0,1,.41.65V52.48A2.12,2.12,0,0,0,36.77,53Z"/>
    </g>
  </g>
</svg>
