<?xml version="1.0" encoding="utf-8"?>
<!-- Generator: Adobe Illustrator 21.0.0, SVG Export Plug-In . SVG Version: 6.00 Build 0)  -->
<svg version="1.1" id="Layer_1" xmlns="http://www.w3.org/2000/svg" xmlns:xlink="http://www.w3.org/1999/xlink" x="0px" y="0px"
	 viewBox="0 0 50 50" style="enable-background:new 0 0 50 50;" xml:space="preserve">
<style type="text/css">
	.st0{clip-path:url(#SVGID_2_);}
	.st1{fill:#FFFFFF;stroke:#393E82;stroke-miterlimit:10;}
	.st2{fill:none;stroke:#393E82;stroke-width:0.5;stroke-miterlimit:10;}
	.st3{fill:#FFFFFF;}
	.st4{fill:#393E82;}
	.st5{fill:#09EBAF;}
	.st6{fill:none;stroke:#393E82;stroke-width:0.25;stroke-miterlimit:10;}
	.st7{fill:#393E82;stroke:#393E82;stroke-width:0.25;stroke-miterlimit:10;}
	.st8{fill:none;}
</style>
<g>
	<defs>
		<rect id="SVGID_1_" x="0" y="0" width="50" height="50"/>
	</defs>
	<clipPath id="SVGID_2_">
		<use xlink:href="#SVGID_1_"  style="overflow:visible;"/>
	</clipPath>
	<g class="st0">
		<circle class="st1" cx="25" cy="25" r="23.1"/>
		<g>
			<path class="st1" d="M34.2,40v-2.6c0-4.3-4.1-7.9-9.2-7.9s-9.2,3.5-9.2,7.9V40H34.2z"/>
			<path class="st2" d="M25,33.7h-0.1c-1.2,0-2.3-1-2.3-2.3v-3.9c0-1.2,1-2.3,2.3-2.3H25c1.2,0,2.3,1,2.3,2.3v3.9
				C27.2,32.7,26.2,33.7,25,33.7z M24.8,26.2c-0.7,0-1.2,0.6-1.2,1.2v4c0,0.7,0.6,1.2,1.2,1.2H25c0.7,0,1.2-0.6,1.2-1.2v-3.9
				c0-0.7-0.6-1.2-1.2-1.2L24.8,26.2L24.8,26.2z"/>
			<path class="st3" d="M25,29.6L25,29.6c-3.8,0-6.9-3.1-6.9-6.9v-4.6c0-3.8,3.1-6.2,6.9-6.2s6.9,2.4,6.9,6.2v4.6
				C31.9,26.5,28.8,29.6,25,29.6"/>
			<path class="st4" d="M25,30.1c-4.1,0-7.3-3.3-7.3-7.3v-4.6c0-3.9,3.1-6.7,7.3-6.7s7.3,2.8,7.3,6.7v4.6
				C32.4,26.8,29.1,30.1,25,30.1 M25,12.4c-3.7,0-6.4,2.4-6.4,5.7v4.6c0,3.5,2.8,6.4,6.4,6.4s6.4-2.8,6.4-6.4v-4.6
				C31.4,14.8,28.7,12.4,25,12.4"/>
			<polygon class="st4" points="25.8,24.8 24.2,24.8 24.2,22.2 25,22.2 25,24.1 25.8,24.1 			"/>
			<polygon class="st4" points="26.2,27.1 23.1,27.1 23.1,26.4 25.9,26.4 26.6,25.6 27.2,26.2 			"/>
			<path class="st5" d="M28.3,11.1c0,0-1.2,6.2,3.1,9c0.2,0.1,1.3,0,1.3,0S34.5,7.7,28.3,11.1"/>
			<path class="st4" d="M31.4,21c-0.2,0-0.3-0.1-0.3-0.1c-4.5-3.1-3.4-9.7-3.3-10l0.1-0.3l0.3-0.1c1.5-0.4,2.7-0.2,3.6,0.6
				c2.4,2.3,1.2,8.8,1.2,9l-0.1,0.2l-0.2,0.1C32.1,20.9,31.7,21,31.4,21 M28.8,11.4c-0.2,1.3-0.5,6.2,2.8,8.6
				c0.1-0.1,0.3-0.1,0.5-0.2c0.4-1.9,0.8-6.3-0.9-7.9C30.6,11.3,29.8,11.2,28.8,11.4"/>
			<path class="st6" d="M31.4,21c-0.2,0-0.3-0.1-0.3-0.1c-4.5-3.1-3.4-9.7-3.3-10l0.1-0.3l0.3-0.1c1.5-0.4,2.7-0.2,3.6,0.6
				c2.4,2.3,1.2,8.8,1.2,9l-0.1,0.2l-0.2,0.1C32.1,20.9,31.7,21,31.4,21z M28.8,11.4c-0.2,1.3-0.5,6.2,2.8,8.6
				c0.1-0.1,0.3-0.1,0.5-0.2c0.4-1.9,0.8-6.3-0.9-7.9C30.6,11.3,29.8,11.2,28.8,11.4z"/>
			<path class="st5" d="M28,11.1c0,0,2,5.4-10.9,10.2l0.1-4.3c0-2.3,1.3-4.4,3.3-5.5c1.9-1,4.2-1.3,6.3-0.8L28,11.1z"/>
			<path class="st7" d="M17.1,21.9l-0.5-0.3v-0.3l0.1-4.3c0-2.4,1.4-4.8,3.5-5.9c2.1-1.1,4.4-1.4,6.7-0.8l1.5,0.4l0.1,0.3
				c0.1,0.3,2,5.9-11.1,10.9L17.1,21.9z M24.6,10.9c-1.4,0-2.6,0.3-3.9,1c-1.9,1-3,3-3,5.1v3.6c9.9-3.9,10.1-8.1,9.9-9.2l-0.9-0.3
				C26,11.1,25.3,10.9,24.6,10.9z"/>
			<path class="st4" d="M23.2,21.3c-0.5-0.5-1.2-0.5-1.6,0L21,20.7c0.7-0.7,2-0.7,2.8,0L23.2,21.3z"/>
			<path class="st4" d="M28.5,21.3c-0.5-0.5-1.2-0.5-1.6,0l-0.6-0.5c0.7-0.7,2-0.7,2.8,0L28.5,21.3z"/>
			<rect x="14.9" y="9.6" class="st8" width="20.2" height="30.8"/>
		</g>
	</g>
</g>
</svg>
