<?xml version="1.0" encoding="utf-8"?>
<!-- Generator: Adobe Illustrator 21.0.0, SVG Export Plug-In . SVG Version: 6.00 Build 0)  -->
<svg version="1.1" id="Layer_1" xmlns="http://www.w3.org/2000/svg" xmlns:xlink="http://www.w3.org/1999/xlink" x="0px" y="0px"
	 width="50px" height="50px" viewBox="0 0 50 50" style="enable-background:new 0 0 50 50;" xml:space="preserve">
<style type="text/css">
	.st0{fill:none;}
	.st1{clip-path:url(#SVGID_2_);}
	.st2{fill:#FFFFFF;stroke:#393E82;stroke-miterlimit:10;}
	.st3{fill:#2E39BF;}
</style>
<rect class="st0" width="50" height="50"/>
<g>
	<defs>
		<rect id="SVGID_1_" width="50" height="50"/>
	</defs>
	<clipPath id="SVGID_2_">
		<use xlink:href="#SVGID_1_"  style="overflow:visible;"/>
	</clipPath>
	<g class="st1">
		<circle class="st2" cx="25" cy="25" r="23.1"/>
		<g id="XMLID_40_">
			<g id="XMLID_44_">
				<circle id="XMLID_48_" class="st3" cx="29.9" cy="23.4" r="6.4"/>
				<circle id="XMLID_47_" class="st3" cx="34.6" cy="27.4" r="5.5"/>
				<circle id="XMLID_46_" class="st3" cx="25.3" cy="27.4" r="5.5"/>
				<rect id="XMLID_45_" x="25.3" y="28.6" class="st3" width="9.2" height="4.4"/>
			</g>
			<g id="XMLID_41_">
				<path id="XMLID_43_" class="st3" d="M16.2,29.6h-5.4c-0.2,0-0.4-0.2-0.4-0.4v-0.6c0-0.2,0.2-0.4,0.4-0.4h5.4
					c0.2,0,0.4,0.2,0.4,0.4v0.6C16.7,29.4,16.5,29.6,16.2,29.6z"/>
				<path id="XMLID_42_" class="st3" d="M24.4,29.6H19c-0.2,0-0.4-0.2-0.4-0.4v-0.6c0-0.2,0.2-0.4,0.4-0.4h5.4
					c0.2,0,0.4,0.2,0.4,0.4v0.6C24.8,29.4,24.6,29.6,24.4,29.6z"/>
				<path class="st3" d="M30.1,33H15.2c-0.4,0-0.7-0.3-0.7-0.7l0,0c0-0.4,0.3-0.7,0.7-0.7h14.9c0.4,0,0.7,0.3,0.7,0.7l0,0
					C30.9,32.7,30.5,33,30.1,33z"/>
				<path class="st3" d="M25.5,26.2H10.6c-0.4,0-0.7-0.3-0.7-0.7l0,0c0-0.4,0.3-0.7,0.7-0.7h14.9c0.4,0,0.7,0.3,0.7,0.7l0,0
					C26.3,25.9,25.9,26.2,25.5,26.2z"/>
				<path class="st3" d="M29.5,22.8H14.6c-0.4,0-0.7-0.3-0.7-0.7l0,0c0-0.4,0.3-0.7,0.7-0.7h14.9c0.4,0,0.7,0.3,0.7,0.7l0,0
					C30.2,22.5,29.9,22.8,29.5,22.8z"/>
				<path class="st3" d="M30.9,19.5H16.1c-0.4,0-0.7-0.3-0.7-0.7l0,0c0-0.4,0.3-0.7,0.7-0.7H31c0.4,0,0.7,0.3,0.7,0.7l0,0
					C31.7,19.1,31.3,19.5,30.9,19.5z"/>
			</g>
		</g>
	</g>
</g>
</svg>
