<?xml version="1.0" encoding="utf-8"?>
<!-- Generator: Adobe Illustrator 21.0.0, SVG Export Plug-In . SVG Version: 6.00 Build 0)  -->
<svg version="1.1" id="Layer_1" xmlns="http://www.w3.org/2000/svg" xmlns:xlink="http://www.w3.org/1999/xlink" x="0px" y="0px"
	 viewBox="0 0 50 50" style="enable-background:new 0 0 50 50;" xml:space="preserve">
<style type="text/css">
	.st0{fill:none;}
	.st1{clip-path:url(#SVGID_2_);}
	.st2{fill:#FFFFFF;stroke:#393E82;stroke-miterlimit:10;}
	.st3{fill:#09EBAF;}
	.st4{fill:#FFFFFF;stroke:#393E82;stroke-width:2;stroke-miterlimit:10;}
	.st5{fill:none;stroke:#393E82;stroke-miterlimit:10;}
	.st6{fill:#09EBAF;stroke:#393E82;stroke-miterlimit:10;}
</style>
<rect y="0" class="st0" width="50" height="50"/>
<g>
	<defs>
		<rect id="SVGID_1_" width="50" height="50"/>
	</defs>
	<clipPath id="SVGID_2_">
		<use xlink:href="#SVGID_1_"  style="overflow:visible;"/>
	</clipPath>
	<g class="st1">
		<circle class="st2" cx="25" cy="25" r="23.1"/>
		<g>
			<circle class="st3" cx="31.6" cy="21.9" r="1.1"/>
			<circle class="st3" cx="31.6" cy="30.7" r="1.1"/>
			<path class="st4" d="M32.8,26.8H17.3c-0.2,0-0.4-0.2-0.4-0.4v-0.7c0-0.2,0.2-0.4,0.4-0.4h15.5c0.2,0,0.4,0.2,0.4,0.4v0.7
				C33.2,26.6,33,26.8,32.8,26.8z"/>
			<path class="st4" d="M32.8,18.4H17.3c-0.2,0-0.4-0.2-0.4-0.4v-0.7c0-0.2,0.2-0.4,0.4-0.4h15.5c0.2,0,0.4,0.2,0.4,0.4V18
				C33.2,18.2,33,18.4,32.8,18.4z"/>
			<line class="st5" x1="25.1" y1="33.7" x2="25.1" y2="35.3"/>
			<line class="st5" x1="14.5" y1="37.5" x2="22.7" y2="37.5"/>
			<line class="st5" x1="27.3" y1="37.5" x2="35.5" y2="37.5"/>
			<circle class="st6" cx="25.1" cy="37.6" r="2.3"/>
			<path class="st2" d="M34.8,26.8H15.4c-0.3,0-0.5,0.2-0.5,0.5v6c0,0.3,0.2,0.5,0.5,0.5h19.4c0.3,0,0.5-0.2,0.5-0.5v-6
				C35.2,27,35,26.8,34.8,26.8z"/>
			<path class="st2" d="M34.8,18.4H15.4c-0.3,0-0.5,0.2-0.5,0.5v6c0,0.3,0.2,0.5,0.5,0.5h19.4c0.3,0,0.5-0.2,0.5-0.5v-6
				C35.2,18.6,35,18.4,34.8,18.4z"/>
			<path class="st2" d="M34.8,10H15.4c-0.3,0-0.5,0.2-0.5,0.5v6c0,0.3,0.2,0.5,0.5,0.5h19.4c0.3,0,0.5-0.2,0.5-0.5v-6
				C35.2,10.2,35,10,34.8,10z"/>
			<circle class="st4" cx="31.5" cy="13.5" r="1.3"/>
			<g>
				<rect x="21.3" y="13.4" class="st2" width="0.3" height="0.3"/>
				<rect x="18" y="13.4" class="st2" width="0.3" height="0.3"/>
			</g>
			<g>
				<rect x="21.3" y="21.7" class="st2" width="0.3" height="0.3"/>
				<rect x="18" y="21.7" class="st2" width="0.3" height="0.3"/>
			</g>
			<g>
				<rect x="21.3" y="30.3" class="st2" width="0.3" height="0.3"/>
				<rect x="18" y="30.3" class="st2" width="0.3" height="0.3"/>
			</g>
			<circle class="st3" cx="31.5" cy="13.5" r="1.1"/>
			<g>
				<circle class="st4" cx="31.6" cy="21.9" r="1.3"/>
				<circle class="st3" cx="31.6" cy="21.9" r="1.1"/>
			</g>
			<g>
				<circle class="st4" cx="31.6" cy="30.2" r="1.3"/>
				<circle class="st3" cx="31.6" cy="30.2" r="1.1"/>
			</g>
		</g>
	</g>
</g>
</svg>
