<?xml version="1.0" encoding="utf-8"?>
<!-- Generator: Adobe Illustrator 16.0.0, SVG Export Plug-In . SVG Version: 6.00 Build 0)  -->
<!DOCTYPE svg PUBLIC "-//W3C//DTD SVG 1.0//EN" "http://www.w3.org/TR/2001/REC-SVG-20010904/DTD/svg10.dtd">
<svg version="1.0" id="Choice_Coupled_" xmlns="http://www.w3.org/2000/svg" xmlns:xlink="http://www.w3.org/1999/xlink" x="0px"
	 y="0px" width="75px" height="75px" viewBox="0 0 75 75" enable-background="new 0 0 75 75" xml:space="preserve">
<rect fill="none" width="75" height="75"/>
<rect fill="none" width="75" height="75"/>
<rect x="-185" y="-20.3" fill="none" width="75" height="75"/>
<g>
	<defs>
		<rect id="SVGID_1_" width="75" height="75"/>
	</defs>
	<clipPath id="SVGID_2_">
		<use xlink:href="#SVGID_1_"  overflow="visible"/>
	</clipPath>
	<g clip-path="url(#SVGID_2_)">
		<defs>
			<rect id="SVGID_3_" width="75" height="75"/>
		</defs>
		<clipPath id="SVGID_4_">
			<use xlink:href="#SVGID_3_"  overflow="visible"/>
		</clipPath>
		<g clip-path="url(#SVGID_4_)">
			<circle fill="#39DCB1" cx="37.5" cy="37.5" r="37.5"/>
			<g>
				<path fill="#FFFFFF" d="M24,31.5l-4,2l-1,2c-0.1,1-0.1,2,0,3c0.1,2,0.1,4,0,6c1.3,0.7,2.6,1.4,4,2c0.7-0.1,1.3-0.1,2,0l1-2
					c0,0,0-7,0-8s0-5,0-5H24z"/>
				<path id="Shape_11_copy" fill="#B7FFEC" d="M51,31.5l3.9,2l1,2c0.1,1,0.1,2,0,3c-0.101,2-0.101,4,0,6
					c-1.301,0.7-2.601,1.4-3.9,2c-0.7-0.1-1.3-0.1-2,0l-1-2c0,0,0-7,0-8s0-5,0-5H51z"/>
				<path d="M55.1,31.101C54.9,26.8,53,22.7,50,19.6c-6.8-6.9-17.9-6.9-24.8-0.1l-0.1,0.1c-3.1,3.1-4.9,7.2-5.1,11.5
					c-4.4,3.3-5.2,9.5-2,13.899c1.8,2.4,4.7,3.9,7.8,3.9c1.1,0,2-0.9,2-2v-15.8c0-1.101-0.9-2-2-2c-0.6,0-1.1,0-1.7,0.1
					c1.5-7.4,8.8-12.1,16.2-10.6c5.3,1.1,9.5,5.3,10.601,10.6c-0.5-0.1-1.101-0.1-1.601-0.1c-1.1,0-2,0.9-2,2v15.8c0,1.1,0.9,2,2,2
					l0,0c0.7,0,1.3-0.101,2-0.2v4.7c0,1-0.8,1.8-1.8,1.8l0,0h-3.4c-0.3-0.8-1-1.3-1.8-1.3h-6.7c-1.1,0-2,0.899-2,2l0,0v2.6
					c0,1.101,0.9,2,2,2h6.7c0.8,0,1.601-0.5,1.8-1.3h3.4c3.2,0,5.7-2.6,5.7-5.7V47c4.399-3.3,5.2-9.6,1.899-13.899
					C56.4,32.3,55.8,31.7,55.1,31.101z M23.8,44.601c-3.1-1.101-4.7-4.5-3.5-7.601c0.6-1.6,1.9-2.899,3.5-3.5V44.601z M51.2,44.601
					V33.4c3.1,1.1,4.7,4.5,3.5,7.6C54.1,42.7,52.8,44,51.2,44.601z"/>
			</g>
		</g>
	</g>
</g>
</svg>
